# xmcd
#
# Track frame offsets:
#	151
#	13055
#	33063
#	50843
#	66641
#	83171
#	107546
#	129083
#	145369
#	157666
#	172196
#	184291
#	199363
#	215136
#	229313
#	241613
#	258374
#	271748
#
# Disc length: 3805
#
# Revision: 3
# Processed by: cddbd v1.5.1PL0 Copyright (c) Steve Scherf et al.
# Submitted via: OrangeCD 5.2
# Normalized: r2:DSETVAR1
#
DISCID=020edb12
DTITLE=Various Artist - Line Dance Fever 6
DYEAR=1998
DGENRE=Country
TTITLE0=Dixie Chicks - Let 'Er Rip
TTITLE1=Dolly Parton - Peace Train (Holy Roller Edit)
TTITLE2=Leanne Rimes - How Do I Live (Mr. Mig Mix)
TTITLE3=Sunshine Cowboys - Shipwrecked
TTITLE4=Mr President - Coco Jamboo (Radio Version)
TTITLE5=Kimber Clayton - Addicted To Love
TTITLE6=Appalusa - Ghostriders
TTITLE7=The Cheap Seats - Brown Eyed Girl
TTITLE8=Scooter Lee - Dizzy
TTITLE9=Hal Ketchum - I Saw The Light
TTITLE10=David Kersh - Hello Walls
TTITLE11=Jo Dee Messina - Bye Bye
TTITLE12=Barry Upton - Ride On Into The Sunset
TTITLE13=Glen Mitchell - Little Miss Hollywood
TTITLE14=Ronnie Beard - Eatin' Right And Drinkin' Bad
TTITLE15=Tim McGraw - You Turn Me On
TTITLE16=Cactus Choir - Step Right Up
TTITLE17=Ruby Lovett - Little Bitty Crack In His Heart
EXTD=
EXTT0=
EXTT1=
EXTT2=
EXTT3=
EXTT4=
EXTT5=
EXTT6=
EXTT7=
EXTT8=
EXTT9=
EXTT10=
EXTT11=
EXTT12=
EXTT13=
EXTT14=
EXTT15=
EXTT16=
EXTT17=
PLAYORDER=
